_________________________  Visit us at _________________________
  
http://p2pdl.com  ____________________________  http://p2pdl.com


Great Expectations 2012 BRRip 720p x264 AAC - PRiSTiNE


Genre: Drama
Plot: A humble orphan suddenly becomes a gentleman with the help of an unknown benefactor. 
Director: Mike Newell
Stars: Ralph Fiennes, Helena Bonham Carter, Robbie Coltrane.
Rated: N/a.


Info: 
http://www.imdb.com/title/tt1836808/

Trailer:


Format                         : MPEG-4
File size                      : 722 MiB
Duration                       : 2h 8mn
Overall bit rate mode          : Variable
Overall bit rate               : 786 Kbps
Video Format                   : AVC
Video Bit rate                 : 699 Kbps
Width                          : 1 280 pixels
Height                         : 544 pixels
Display aspect ratio           : 2.35:1
Frame rate mode                : Constant
Frame rate                     : 23.976 fps
Stream size                    : 642 MiB (89%)
Writing library                : x264 core 130 r2273
Audio Format                   : AAC
Bit rate mode                  : Variable
Audio Bit rate                 : 83.9 Kbps
Channel(s)                     : 2 channels
Channel positions              : Front: L R
Sampling rate                  : 48.0 KHz
Stream size                    : 77.0 MiB (11%)
Language                       : English
Subtitle                       : Yes(English)
Source                         : 720p.BluRay.X264-7SinS(Thanks)

Screenshots:
 
http://cdn.piczend.com/images/3vqzHWKK/1364700900_1.jpg 
http://cdn.piczend.com/images/MZiAgFuM/1364700902_2.jpg 
http://cdn.piczend.com/images/yAhpkWuv/1364700902_3.jpg 
http://cdn.piczend.com/images/lQsTMi6v/1364700901_4.jpg 
http://cdn.piczend.com/images/sa5sHge2/1364700903_5.jpg 
http://cdn.piczend.com/images/Dp458kO9/1364700902_6.jpg


----------------------------------------------------------------------------------------------------


Encoded using revolutionary 10bit encoding, which enables us to provide you more crispier 
and sharper images at small sizes, just make sure you follow our instructions without a fault.
Recommend to you to use latest version of VLC player. Install K-Lite Codec Pack or shark007 codecs
in case of any kind of problem in playback (For non-VLC Media Player users). Alternatively, install
Core AVC codecs, the fastest decoder that there is coupled with Community Center Codec Pack and play
on Windows Media Player Classic. Check sample to be sure.
Enjoy!

Encoder Notes: Encoder Notes: Looking For Early Access To Anything You Can Provide DVDScr, R5, DVDR, BluRay, Direct
Audio, Music Releases and Seedboxes. We require dedicated servers, so as to do more and fast releases of movies.
If You Got anything to offer contact us at "prg@hush.com".
Fan Page:  
http://www.fb.me/p2pdl